/* XPM */
static char *_3331_4eaf9f7e1810300abcbae330bafa704ef4db6ab4a93c0b0cf1039bbe2ea5e68f[] = {
/* columns rows colors chars-per-pixel */
"64 64 256 2 ",
"   c black",
".  c #0000A8",
"X  c #00A800",
"o  c #00A8A8",
"O  c #A80000",
"+  c #A800A8",
"@  c #A85400",
"#  c gray66",
"$  c gray33",
"%  c #5454FC",
"&  c #54FC54",
"*  c #54FCFC",
"=  c #FC5454",
"-  c #FC54FC",
";  c #FCFC54",
":  c gray99",
">  c #ECECEC",
",  c gainsboro",
"<  c #D0D0D0",
"1  c #C0C0C0",
"2  c #B4B4B4",
"3  c gray66",
"4  c #989898",
"5  c gray55",
"6  c #7C7C7C",
"7  c gray44",
"8  c #646464",
"9  c gray33",
"0  c #484848",
"q  c gray22",
"w  c #2C2C2C",
"e  c #202020",
"r  c #FC0000",
"t  c #EC0000",
"y  c #E00000",
"u  c #D40000",
"i  c #C80000",
"p  c #BC0000",
"a  c #B00000",
"s  c #A40000",
"d  c #980000",
"f  c #880000",
"g  c #7C0000",
"h  c #700000",
"j  c #640000",
"k  c #580000",
"l  c #4C0000",
"z  c #400000",
"x  c #FCD8D8",
"c  c #FCB8B8",
"v  c #FC9C9C",
"b  c #FC7C7C",
"n  c #FC5C5C",
"m  c #FC4040",
"M  c #FC2020",
"N  c #FC0000",
"B  c #FCA85C",
"V  c #FC9840",
"C  c #FC8820",
"Z  c #FC7800",
"A  c #E46C00",
"S  c #CC6000",
"D  c #B45400",
"F  c #9C4C00",
"G  c #FCFCD8",
"H  c #FCFCB8",
"J  c #FCFC9C",
"K  c #FCFC7C",
"L  c #FCF85C",
"P  c #FCF440",
"I  c #FCF420",
"U  c #FCF400",
"Y  c #E4D800",
"T  c #CCC400",
"R  c #B4AC00",
"E  c #9C9C00",
"W  c #848400",
"Q  c #706C00",
"!  c #585400",
"~  c #404000",
"^  c #D0FC5C",
"/  c #C4FC40",
"(  c #B4FC20",
")  c #A0FC00",
"_  c #90E400",
"`  c #80CC00",
"'  c #74B400",
"]  c #609C00",
"[  c #D8FCD8",
"{  c #BCFCB8",
"}  c #9CFC9C",
"|  c #80FC7C",
" . c #60FC5C",
".. c #40FC40",
"X. c #20FC20",
"o. c #00FC00",
"O. c #00FC00",
"+. c #00EC00",
"@. c #00E000",
"#. c #00D400",
"$. c #04C800",
"%. c #04BC00",
"&. c #04B000",
"*. c #04A400",
"=. c #049800",
"-. c #048800",
";. c #047C00",
":. c #047000",
">. c #046400",
",. c #045800",
"<. c #044C00",
"1. c #044000",
"2. c #D8FCFC",
"3. c #B8FCFC",
"4. c #9CFCFC",
"5. c #7CFCF8",
"6. c #5CFCFC",
"7. c #40FCFC",
"8. c #20FCFC",
"9. c #00FCFC",
"0. c #00E4E4",
"q. c #00CCCC",
"w. c #00B4B4",
"e. c #009C9C",
"r. c #008484",
"t. c #007070",
"y. c #005858",
"u. c #004040",
"i. c #5CBCFC",
"p. c #40B0FC",
"a. c #20A8FC",
"s. c #009CFC",
"d. c #008CE4",
"f. c #007CCC",
"g. c #006CB4",
"h. c #005C9C",
"j. c #D8D8FC",
"k. c #B8BCFC",
"l. c #9C9CFC",
"z. c #7C80FC",
"x. c #5C60FC",
"c. c #4040FC",
"v. c #2024FC",
"b. c #0004FC",
"n. c #0000FC",
"m. c #0000EC",
"M. c #0000E0",
"N. c #0000D4",
"B. c #0000C8",
"V. c #0000BC",
"C. c #0000B0",
"Z. c #0000A4",
"A. c #000098",
"S. c #000088",
"D. c #00007C",
"F. c #000070",
"G. c #000064",
"H. c #000058",
"J. c #00004C",
"K. c #000040",
"L. c #282828",
"P. c #FCE034",
"I. c #FCD424",
"U. c #FCCC18",
"Y. c #FCC008",
"T. c #FCB400",
"R. c #B420FC",
"E. c #A800FC",
"W. c #9800E4",
"Q. c #8000CC",
"!. c #7400B4",
"~. c #60009C",
"^. c #500084",
"/. c #440070",
"(. c #340058",
"). c #280040",
"_. c #FCD8FC",
"`. c #FCB8FC",
"'. c #FC9CFC",
"]. c #FC7CFC",
"[. c #FC5CFC",
"{. c #FC40FC",
"}. c #FC20FC",
"|. c #FC00FC",
" X c #E000E4",
".X c #C800CC",
"XX c #B400B4",
"oX c #9C009C",
"OX c #840084",
"+X c #6C0070",
"@X c #580058",
"#X c #400040",
"$X c #FCE8DC",
"%X c #FCE0D0",
"&X c #FCD8C4",
"*X c #FCD4BC",
"=X c #FCCCB0",
"-X c #FCC4A4",
";X c #FCBC9C",
":X c #FCB890",
">X c #FCB080",
",X c #FCA470",
"<X c #FC9C60",
"1X c #F0945C",
"2X c #E88C58",
"3X c #DC8854",
"4X c #D08050",
"5X c #C87C4C",
"6X c #BC7848",
"7X c #B47044",
"8X c #A86840",
"9X c #A0643C",
"0X c #9C6038",
"qX c #905C34",
"wX c #885830",
"eX c #80502C",
"rX c #744C28",
"tX c #6C4824",
"yX c #5C4020",
"uX c #543C1C",
"iX c #483818",
"pX c #403018",
"aX c #382C14",
"sX c #28200C",
"dX c #600064",
"fX c #006464",
"gX c #006060",
"hX c #00001C",
"jX c #00002C",
"kX c #302410",
"lX c #480048",
"zX c #500050",
"xX c #000034",
"cX c gray11",
"vX c #4C4C4C",
"bX c gray36",
"nX c gray25",
"mX c gray19",
"MX c #343434",
"NX c #D8F4F4",
"BX c #B8E8E8",
"VX c #9CDCDC",
"CX c #74C8C8",
"ZX c #48C0C0",
"AX c #20B4B4",
"SX c #20B0B0",
"DX c #00A4A4",
"FX c #009898",
"GX c #008C8C",
"HX c #008484",
"JX c #007C7C",
"KX c #007878",
"LX c #007474",
"PX c #007070",
"IX c #006C6C",
"UX c #980088",
/* pixels */
"q q q q q q q q q q q q q q q q q q q q q q q q q q q q q q q q q q q q q q q q q q q q q q q q q q q q q q q q q q q q q q q q ",
"$ q $ 0 0 0 0 0 $ 0 0 0 0 0 0 $ 0 q 0 0 0 0 0 0 0 $ $ $ $ $ $ 0 0 0 0 0 0 0 0 0 $ $ $ $ $ $ $ 0 0 0 0 q q q 0 0 $ $ 0 0 0 0 0 q ",
"q d a a O s d f f h j l pX0 0 $ d O O O s d f f g h g g g g g f d s s d tX0 q $ d a p p a s f g g f f g g g f f d d d d d f yX0 ",
"0 a u u i p O d f f j l z L.0 $ a u u i p O d d f f f f f f f d s a p O f L.0 q a u y y i a d f f d d d f f d d s O a a O s f L.",
"0 a u u i p O d f g j l z L.0 $ a i i i p s d d f f f d f f f d d s O s f L.0 $ a u y y i O d f f d d d f f d d d s s O O d g L.",
"0 O p p p O d f f g j l z L.0 $ O p p a O d d f f f F F F F F F F F F F F L.0 0 O p i i a s f f f d d d f f d d d d d d d f j L.",
"0 d O s s s d f f h k l z L.0 $ d O O s f d d h h Q E T T T T R E R T T T T T Q F O O O s d f f f d d f f f f f d d f f f g k L.",
"0 f d d d d d f f j l z z L.0 0 d s d s f h h E E Q W R T T R E Y Y Y Y Y Y Y R E E s d g s g g g f f f f f g f f f g f f j l L.",
"0 g f f f f f f g j l z kXL.q $ g f f j l Q Q E E Q Q Q R R W T T T T T T Q ! Q E E Q Q h h h j j j j j j j j j j j j j j j l L.",
"0 yXh h h h h h j l z z sXL.q 0 uXj h Q E E Q ! ! W Y W Q R W R R R R Y U T Y W ! ! Q E E Q uXk k k l l l l l l l l l l l l kXL.",
"0 0 L.L.L.L.L.L.L.L.e e e L.q $ 0 L.! W E E Y Y Y Y Y T W Q E E E E E U E T T E Y Y Q E E W ! L.L.L.L.L.e e e e e L.L.L.L.L.L.L.",
"$ q q q q 0 0 0 0 q q q q q 0 q 0 ! ! ! ! Q Y Y U U W W E Q W W W W W ! E W W U U R Y Q ! ! ! ! $ $ $ 0 0 nXq nX$ q $ 0 0 0 $ q ",
"p a O s d f g g g h h g f f p s ! E E Q Y Y Y T W W Q T ~ Q Q Q Q Q Q ! T T Q W W T E Y Y Q E E ! l h p s 0 nX$ d O a O s d f g ",
"u i i i a d f f f f g f d d s E E ! E ! Y U U W E E R Q ~ ! ! ! ! ! ! E ! Q R E E W U U Y ! E ! E E l l h q 0 q a u u i p O d f ",
"i i i p O d f f f g h f d f ! E E ! ! ! R W W Q Q T T ! ~ ~ ~ ~ ~ ~ ~ E E ! T T Q Q W W R ! ! ! E E ! l z q 0 $ a i i i a s d f ",
"s s O O d d f f f h h j s ! ! ! ! W T W ! W E W ! ! ! ! ~ ~ ~ ~ ~ ~ ~ W W ! ! ! ! W E W ! W T W ! ! ! ! z e nX0 s p a O O d d f ",
"d d d d d f f f f h j j E E ! ! W T Y Y ! Q T T ! E Q ~ ~ e e e Q L.L.~ ~ ~ E E ! T T Q ! Y W T W ! ! E E e e 0 d s d d d d f f ",
"f d d f f f f f g h j f E E ! Y Y Y W ~ Q ! ! ! ! Q e e e e e ! Q E L.L.L.L.W ! ! ! ! ! Q ~ Y W Y Y ! E E e e 0 f d d d d d f f ",
"g f f f f f f f h j j ~ ~ ~ W R Y W Y E Q E E Q ! e e e e e ! Q W W T L.L.L.L.L.! Q E E Q E Y Y W Y W ~ ~ ~   e h f f f f f f g ",
"k j j j j j j j j k uX! ~ Y R Y W E W ~ ! ! E Q e e e e e ! Q Q W W W W L.q L.L.L.E E ! ! ~ W E Y W Y Y ~ !   e k j h h h h j j ",
"L.L.L.e L.L.L.e e e E E W T E Y W R Y Q E ! ! e e e e e ! Q Q W Q Q ! L.L.q q L.L.L.! ! E Q Y Y T W E T W E E   e e e e L.L.L.L.",
"$ $ 0 q q 0 $ q $ q E E W Q Y Y W E T ! Q E e e e e e ! Q Q W Q Q ! L.L.$ $ $ q L.L.L.E Q ! T E E T W Q W E E   e e q nX$ 0 0 0 ",
"$ d O O s s d f g u Q ! Y Y Y W R Q ! E ! e e e e e ! Q Q W Q Q ! L.L.$ $ U U $ q L.L.L.! E ! Q Y Y W Y Y ! Q l l k h f f j pX0 ",
"$ a u u i p s d f W Q ! Y R Y W R Y ! E Q e e e e ! Q Q W Q Q ! L.L.q $ U R R U $ q L.L.E E ! Y Y T Y E Y ! Q W j j f s d h l L.",
"q a i i i a d f F E Q ! R T Y W R T ! ! e e e e ! Q Q W W Q ! L.L.q $ U R E E E Y q q L.L.! ! T R R Y W R ! Q E uXj f d f j z L.",
"0 s a a a s d f F E E ! ! Q Q R R ~ Q Q e e e e ! Q Q W W W W E ! q U R E W W E E Y q L.L.Q Q ~ R R Q Q ! ! E E uXj g f g k z L.",
"0 d s s s d f f F E W ! ~ Q Q Q ~ E E ! e e e L.q ! Q Q W W W E Y U R E W Q W W E E Y q L.! E E ~ Q Q Q ~ ! W E uXl j h j l z L.",
"$ f d d d f f f F E ! ! ! Y Y ~ E E E e e Q Q L.q q ! Q Q W W E E R E W Q Q Q Q W E E Y L.L.E E E ~ Y Y ! ! ! E iXl l j j l z L.",
"0 f f f f g g g g W ! ! Q Y E ! ! ! ! e Q Q W E q q q ! Q Q W W E E W Q ! w ! Q Q W E E Y L.! ! ! ! R T Q ! ! W l z l l k l z L.",
"0 yXh j j j j j j ! Q R R Y W Y Y Q Q Q Q Q W E R q q q ! Q W W W W W Q L.L.L.! Q Q W W Q ! Q Q Y Y T E Y Y Q ! z z z z l z kXL.",
"0 0 q L.L.L.L.L.L.! Q T Y Y W R E ! E L.! Q W E E T q q MXW W W W W W W E L.q L.! Q Q Q ! L.E ! E R T E E T Q !       e e e L.L.",
"$ $ $ $ $ 0 0 q 0 ! ~ Q Y Y W W ! ! E L.L.! Q W E E Y q R W W Q Q Q W W E E MXq L.! Q ! L.L.E ! ! E Y W E Q ~ ! e e e e 0 0 $ q ",
"d d d d d d f f tXE ! ~ Q E W Y Y Q Q ! L.L.! Q W E E T E E W Q Q Q W W E E E MXq L.! q q Q Q Q Y Y Y W Q ~ ! E ~ l l j g f h j ",
"a a a a a O s d f E E Q R R Y W R ! E Q L.L.L.! Q W E E E W Q ! w ! Q W W E E E MXq q q 0 E E ! R R Y W Y Q E E k l j g d f f h ",
"O a a a a O s d f ! ! Q T Y T W W ! ! ! L.L.L.L.! Q W W W Q ! L.L.w W W W W W W Q q 0 0 $ ! ! ! W R T W T Q ! ! l l j h f f g h ",
"s s O O O s s d f h ! ~ Q Y Y W Y W ! W ! L.L.L.L.! Q Q Q ! L.L.L.T W W W Q Q ! w L.q $ Q W W W Y Y W E Q ~ ! z l l k j f f g h ",
"d d d s s d d d f h Q ! ~ Q E Y W R Y ! W L.L.L.L.L.! ! ! L.L.L.Y E W W Q Q ! L.L.q q 0 W ! Y R R Y W Q ~ ! Q z l l l j g f g h ",
"f f d d d d d d f h R W ! R Y Y W Y E ! E Q L.q L.L.L.! L.L.L.Y E E W Q Q ! L.L.q 0 $ Q E ! E Y T W Y Y ! W R z l l l j g f g g ",
"g g f f f f f f f h W Q ! T R Y W W ~ ~ ! Q Q q q L.L.L.L.L.Y E E W Q Q ! L.L.q 0 $ Q E E ~ ~ W W W R T ! Q W z z z l k h g g g ",
"k j j h g h h h j z z ! ~ Q Y E Q Q ! Q Q ! E E 0 q L.L.L.E W W W Q Q ! L.L.q 0 $ Q E ! ! Q ! Q Q E Y Q ~ ! z z z z z l k j j j ",
"L.L.L.L.L.L.L.L.L.L.L.! ! ~ Q Q ~ Y E Q Y Y ! ! Q 0 0 0 q L.! Q Q Q ! L.L.q 0 0 Q ! ! T T Q E Y ~ Q Q ~ ! !       e e e e L.L.L.",
"$ 0 $ q 0 q q 0 0 q q q ! Q ! ! ! Q Y Y Y T Q Q ! R $ $ 0 L.L.! Q ! L.L.q q Q E ! Q Q T Y T Y Q ! ! ! Q !     e e e e q $ q $ q ",
"q d O O s d d f g h h h yXE E W ! W Q Y Y W R Y ! E Q T E L.L.L.! L.L.W R T T E ! E R W T W Q W ! W E E ~ z z l k j j j j l kX0 ",
"$ O i i i p O d f f f f g Q E W ! Q E W Y Y Y Y T W W Q T T T T W T T T T T W ! T R Y T W W E Q ! W E Q l l l k h f f g j l z L.",
"0 O i i p a s d d d d f h l Q ! ! Q T E Q Y Y Y E T Y Q E R T W Y Y Y Y Y W E R Q T T W Q E T Q ! ! Q l l l l k h f f g h l z L.",
"0 d O O s d d d d d d f j l l ! Q ! ! Q E W W Y Y Y Y W Q R W T T T T T T W R Y T W W R E Q ! ! Q ! l z l l l k h f f g j l z L.",
"q d d d d f f f f d f h j k l l Q R W ~ T W Q W W Y Y E Q R W R R R R R R W T T W R Q E T ~ W R Q l l z z l l k h f f g j l z L.",
"$ f d f f f f f f f f j k h l l l Q ! ! ~ ~ ~ E R W W W Q W E E E E E E E Q W W R E ~ ~ ~ ! ! Q l l z z z z l k h f f g j l z L.",
"q f f f f g g f f f g j k f h l l l l ! E W ~ T T E ! W Q W E E E E E E E ! ! E T T ~ W E ! l z z z l z z z l k j g g h k z z L.",
"$ yXh j j j j j h h j l l l l l l l l l Q E ! ~ ! ! ! ! ! W W W W W W W W ! Q ! ! ~ ! E Q z z z z z z z z z l l k j j k l kXkXL.",
"q 0 L.L.L.L.L.L.L.L.L.L.q q q L.e           ! Q Q Q W ! ! Q Q Q Q Q Q Q Q ! W Q Q Q !             e e L.e L.L.e e e L.L.L.L.L.L.",
"$ q $ q $ 0 $ 0 0 0 0 $ 8 8 $ 0 q q L.e e       W W W ! ! ! ! ! ! ! ! ! ! ! W W W           e e L.e L.L.L.q q mXe e mXq 0 0 $ 0 ",
"O O O s d f g h g g h j j h h g g j 0 q L.z l l l l l aX~ ~ ~ ~ ~ ~ ~ ~ ~ aXl l l z z z z z sXe e L.f s s s d f j j j j j j j j ",
"p i i i a d f f f f g h h g g f f g L.0 q k k l l l l l z z z z z z z l l z z z z z z z z z z e L.L.s i i i a d f g g g g g g g ",
"O a p p O d f f f f g g g g g f f h L.0 0 h j k l l l l z z z z z z z l l z z z z z z z z z z e L.L.s p p p O d f g g h h g f f ",
"d d d s d f f f f f g h g g g g g j L.0 nXf h k l l l l z z z z z z z l l z z z z z z z z z z e L.q d s s s d d f g h j h g f f ",
"f f f d f f f f f f h h h j j h g j L.0 nXf g j l l l l l l z z z z z l l l z z z z z z z z z L.q 0 f d f f f f f g h h h h h j ",
"f f f f f f f f f g h j j k k j j j L.0 nXf f j j k l l l l l z z z l l k l l z z z z z z z z L.0 0 f f f f f f f g h h h j j k ",
"f f g f f f f f f g h j l l l l k l L.0 0 f g h h j j j j k l l l l l k j l l l l l l l z z z L.q 0 f f g f f f f g h h h j k l ",
"h h g g g g g g g h j k l l l l l z L.0 $ g g h h h j j j j k l l l l j j k k k k k k l l z z L.q 0 g g h g g f g h j j j k l l ",
"l k j j j j j j j k l l z z z z z kXL.0 0 yXj j j j j k l k k l l l l k k l l l l l l l z z sXe 0 $ yXj k k j j j j k l l l z z ",
"L.L.L.L.L.L.L.L.L.L.L.L.L.L.L.L.L.L.L.0 $ 0 q mXmXL.L.L.L.L.L.L.L.L.L.L.L.L.L.e e e e e L.e e e q 0 0 L.L.L.L.L.L.e e e e e L.L.",
"q $ q $ q q q 0 0 0 0 0 $ $ q 0 0 0 0 $ $ $ $ $ 0 0 0 $ 0 0 0 $ 0 0 q 0 0 0 nXq q nXq q nX0 nXq nX$ 0 0 q $ 0 0 0 0 nXq nX0 0 0 ",
"$ $ $ $ $ $ $ $ $ $ $ $ $ $ $ $ $ $ $ $ $ $ $ $ $ $ $ $ $ $ $ $ $ $ $ $ $ $ $ $ $ $ $ $ $ $ $ $ $ $ $ $ $ $ $ $ $ $ $ $ $ $ $ $ "
};
